<?xml version="1.0" encoding="utf-8"?>
<!-- Generator: Adobe Illustrator 22.1.0, SVG Export Plug-In . SVG Version: 6.00 Build 0)  -->
<svg version="1.1" id="Слой_1" xmlns="http://www.w3.org/2000/svg" xmlns:xlink="http://www.w3.org/1999/xlink" x="0px" y="0px" 
	 width="29" height="29" viewBox="0 0 48 48" style="enable-background:new 0 0 48 48;" xml:space="preserve">
<style type="text/css">
	.st0{fill:none;stroke:#ffffff;stroke-miterlimit:10;}
	.st1{fill:none;stroke:#ffffff;stroke-linecap:round;stroke-miterlimit:10;}
	.st2{fill:none;stroke:#ffffff;stroke-width:3;stroke-miterlimit:10;}
</style>
<g>
	<line class="st0" x1="0.5" y1="47.5" x2="12.5" y2="35.5"/>
</g>
<line class="st0" x1="39.8" y1="1.2" x2="46.8" y2="8.2"/>
<path class="st0" d="M40.2,28.8"/>
<path class="st0" d="M23.2,10.8"/>
<path class="st0" d="M22.5,37.5"/>
<path class="st0" d="M11.5,25.5"/>
<line class="st0" x1="30.1" y1="4.8" x2="43.1" y2="17.8"/>
<g>
	<line class="st0" x1="8.7" y1="31.4" x2="30.5" y2="9.5"/>
</g>
<g>
	<path class="st0" d="M39.9,15.1"/>
</g>
<g>
	<path class="st0" d="M15.5,39.5"/>
</g>
<line class="st0" x1="28.1" y1="6.8" x2="41.1" y2="19.8"/>
<line class="st1" x1="8.6" y1="31.4" x2="16.1" y2="38.9"/>
<line class="st0" x1="38.5" y1="13.5" x2="43.5" y2="8.5"/>
<line class="st0" x1="34.5" y1="9.5" x2="39.5" y2="4.5"/>
<g>
	<line class="st0" x1="16.2" y1="38.9" x2="38" y2="17"/>
</g>
<line class="st0" x1="42.6" y1="17.5" x2="40.6" y2="19.5"/>
<line class="st0" x1="30.3" y1="5.3" x2="28.3" y2="7.3"/>
<line class="st0" x1="46.5" y1="7.8" x2="44.5" y2="9.8"/>
<line class="st0" x1="40.4" y1="1.3" x2="38.4" y2="3.3"/>
<line class="st0" x1="38.2" y1="2.8" x2="45.2" y2="9.8"/>
<path class="st0" d="M27.5,18.5"/>
<path class="st0" d="M24.5,15.5"/>
<path class="st0" d="M23.5,22.5"/>
<path class="st0" d="M20.5,19.5"/>
<line class="st0" x1="17.6" y1="23.1" x2="20.6" y2="26.1"/>
<line class="st0" x1="25.5" y1="15.2" x2="28.5" y2="18.2"/>
<line class="st0" x1="21.6" y1="19.1" x2="24.6" y2="22.1"/>
<path class="st0" d="M17.4,22.4"/>
<line class="st0" x1="13.6" y1="27.1" x2="16.6" y2="30.1"/>
<line class="st2" x1="12.5" y1="35.5" x2="10.5" y2="37.5"/>
</svg>
