<?xml version="1.0" encoding="utf-8"?>
<!-- Generator: Adobe Illustrator 22.1.0, SVG Export Plug-In . SVG Version: 6.00 Build 0)  -->
<svg version="1.1" id="Слой_1" xmlns="http://www.w3.org/2000/svg" xmlns:xlink="http://www.w3.org/1999/xlink" x="0px" y="0px" width="24" height="24"
	 viewBox="0 0 1024 1024" style="enable-background:new 0 0 1024 1024;" xml:space="preserve">
<style type="text/css">
	.st0{fill:#FFFFFF;}
	.st1{fill:none;stroke:#FFFFFF;stroke-width:70;stroke-linecap:round;stroke-miterlimit:10;}
	.st2{fill-rule:evenodd;clip-rule:evenodd;fill:#FFFFFF;}
	.st3{fill:#FFFFFF;stroke:#FFFFFF;stroke-width:70;stroke-linecap:round;stroke-miterlimit:10;}
	.st4{fill:#343A40;stroke:#FFFFFF;stroke-linecap:round;stroke-miterlimit:10;}
</style>
<g>
	<path class="st0" d="M513,782c-75.1,0-145.6-29.2-198.7-82.3C261.2,646.6,232,576.1,232,501s29.2-145.6,82.3-198.7
		C367.4,249.2,437.9,220,513,220s145.6,29.2,198.7,82.3C764.8,355.4,794,425.9,794,501s-29.2,145.6-82.3,198.7S588.1,782,513,782z"
		/>
	<path class="st0" d="M513,255c33.2,0,65.4,6.5,95.7,19.3c29.3,12.4,55.6,30.1,78.2,52.7s40.4,48.9,52.7,78.2
		c12.8,30.3,19.3,62.5,19.3,95.7s-6.5,65.4-19.3,95.7c-12.4,29.3-30.1,55.6-52.7,78.2s-48.9,40.4-78.2,52.7
		C578.4,740.5,546.2,747,513,747s-65.4-6.5-95.7-19.3c-29.3-12.4-55.6-30.1-78.2-52.7s-40.4-48.9-52.7-78.2
		C273.5,566.4,267,534.2,267,501s6.5-65.4,19.3-95.7c12.4-29.3,30.1-55.6,52.7-78.2s48.9-40.4,78.2-52.7
		C447.6,261.5,479.8,255,513,255 M513,185c-174.5,0-316,141.5-316,316s141.5,316,316,316s316-141.5,316-316S687.5,185,513,185
		L513,185z"/>
</g>
<g>
	<line class="st1" x1="511" y1="94" x2="510.5" y2="915"/>
	<line class="st2" x1="511" y1="94" x2="510.5" y2="915"/>
</g>
<line class="st3" x1="908" y1="499.5" x2="115" y2="499.5"/>
<line class="st3" x1="791.9" y1="220.1" x2="241" y2="771"/>
<line class="st3" x1="230" y1="220" x2="790.9" y2="780.9"/>
<line class="st3" x1="926.5" y1="547" x2="926.5" y2="453"/>
<line class="st3" x1="95.5" y1="547" x2="95.5" y2="453"/>
<line class="st3" x1="249.7" y1="172.8" x2="183.3" y2="239.2"/>
<line class="st3" x1="837.7" y1="762.8" x2="771.3" y2="829.2"/>
<line class="st3" x1="251.2" y1="829.7" x2="184.8" y2="763.3"/>
<line class="st3" x1="837.7" y1="238.2" x2="771.3" y2="171.8"/>
<line class="st3" x1="557.5" y1="915" x2="463.5" y2="915"/>
<line class="st3" x1="557.5" y1="86" x2="463.5" y2="86"/>
<circle class="st4" cx="511.5" cy="500.5" r="246"/>
</svg>
