<svg 
    xmlns="http://www.w3.org/2000/svg"
    xmlns:cc="http://web.resource.org/cc/"
    xmlns:dc="http://purl.org/dc/elements/1.1/"
    xmlns:rdf="http://www.w3.org/1999/02/22-rdf-syntax-ns#"
    viewBox="0 0 1500 1000"
  >
  <!-- preserveAspectRatio="xMidYMin" -->
 
 <metadata>
  <rdf:rdf>
   <dc:format>
    image/svg+xml
   </dc:format>
   <dc:title>
    Map of Ukraine
   </dc:title>
   <dc:creator>
    BGDNkl
   </dc:creator>
  </rdf:rdf>
 </metadata>

 <style type="text/css">
    polygon:hover 
    {
        opacity: 0.4;
    }

  .west {fill: orangered;}
	.central {fill: yellow;}
	.east {fill: greenyellow;}

  text {
    font-family: 'Libre Franklin', sans-serif;
    color: black; 
    font-size: 180%;
  }
 </style>

<!-- West: -->
	<polygon id="UA-07" onclick="myPopup('https://en.wikipedia.org/wiki/Volyn_Oblast', 'Info', 850, 700);" onmouseover="displayName('Volyn Oblast')" points="123,96,129,93,133,92,142,93,147,96,150,100,157,99,170,87,179,81,181,69,186,63,197,63,209,60,213,63,219,61,226,61,238,59,252,54,254,54,256,54,262,57,275,58,281,58,281,60,293,61,290,65,289,68,289,72,282,79,279,85,279,95,282,98,288,100,281,107,284,120,284,131,285,131,289,127,295,127,297,125,301,127,305,124,305,132,311,137,313,143,321,146,325,150,325,154,325,157,320,158,316,158,315,163,320,166,324,165,328,174,328,176,322,177,318,179,321,181,323,186,317,190,321,195,316,196,309,199,309,206,309,209,306,219,300,215,297,215,293,210,286,209,278,215,273,218,267,211,267,216,270,220,270,222,263,222,261,228,262,230,249,229,248,232,253,237,245,241,249,246,253,251,252,252,248,252,245,259,245,260,242,255,241,255,236,255,233,249,230,251,230,253,231,255,227,255,223,253,220,255,215,256,213,251,210,247,206,247,201,245,201,244,198,247,194,243,192,237,197,236,199,233,198,232,194,229,190,229,189,228,185,220,179,223,175,226,165,217,163,217,161,213,161,207,156,207,155,201,152,201,151,195,164,195,166,191,163,188,154,182,149,173,143,169,148,167,143,160,143,153,136,151,129,139,126,135,123,135,125,128,129,127,129,120,125,117,127,112,121,111,121,107,125,107,122,95" style="fill:orangered;stroke:white;stroke-width:5;fill-rule:evenodd;"/>	
	<polygon id="UA-56" onclick="myPopup('https://en.wikipedia.org/wiki/Rivne_Oblast', 'Info', 850, 700);" onmouseover="displayName('Rivne Oblast')" points="460,112,462,99,446,92,439,99,428,99,428,91,421,91,420,78,404,77,394,79,367,67,359,71,354,67,333,64,328,59,313,58,301,55,291,59,284,59,292,61,290,68,290,69,283,79,277,93,289,101,281,106,283,121,283,132,287,128,291,128,293,126,298,127,307,123,305,131,310,136,313,142,321,147,325,152,322,157,316,159,315,164,322,165,327,170,327,175,317,180,322,185,317,187,320,195,308,199,308,210,305,217,301,216,296,212,294,210,284,211,271,219,268,215,269,221,261,223,260,227,249,230,249,233,250,234,245,238,253,251,245,257,244,261,246,262,253,259,254,263,252,268,252,273,253,285,260,291,268,297,270,291,273,291,273,287,276,287,274,279,277,278,285,279,289,276,288,279,292,277,309,275,314,267,317,266,320,267,328,263,331,267,340,265,337,276,339,279,339,280,349,273,354,265,360,267,370,257,378,248,381,239,385,239,386,235,397,231,401,234,409,227,411,223,414,228,415,231,421,231,424,225,418,221,425,206,421,191,419,179,421,173,428,165,437,151,441,144,437,136,445,131,445,128,445,119,453,127,450,117,450,115,457,113,460,111" style="fill:orangered;stroke:white;stroke-width:5;fill-rule:evenodd;" />
	<polygon id="UA-46" onclick="myPopup('https://en.wikipedia.org/wiki/Lviv_Oblast', 'Info', 850, 700);" onmouseover="displayName('Lviv Oblast')" points="120,266,104,277,89,293,78,306,70,319,66,320,65,325,60,327,62,332,57,337,53,337,42,357,45,361,45,372,50,374,49,382,53,386,46,401,55,405,61,411,61,418,62,424,62,427,68,438,69,441,80,438,87,449,93,452,96,450,97,453,101,451,104,456,117,457,120,442,116,436,118,427,126,419,129,409,146,409,151,407,156,410,159,404,165,405,184,400,189,401,191,396,188,393,184,393,185,384,180,388,177,383,182,381,185,383,190,376,185,372,189,366,188,357,202,356,212,362,216,352,226,349,234,345,239,333,244,334,246,330,244,323,249,320,268,315,272,310,270,306,275,304,268,297,253,285,252,269,253,263,253,258,243,263,243,261,242,255,235,255,233,249,230,251,231,256,226,255,223,254,219,255,213,256,212,249,211,247,200,244,197,247,194,243,192,237,197,236,199,232,194,229,190,229,185,220,175,226,165,217,163,217,163,224,167,230,160,235,158,234,154,247,133,248,127,254,129,256,123,259" style="fill:orangered;stroke:white;stroke-width:5;fill-rule:evenodd;" />
	<polygon id="UA-61" onclick="myPopup('https://en.wikipedia.org/wiki/Ternopil_Oblast', 'Info', 850, 700);" onmouseover="displayName('Ternopil Oblast')" points="334,357,334,360,336,365,336,370,340,372,341,378,340,383,343,387,341,388,341,393,338,394,338,401,340,403,338,407,340,413,337,417,339,421,338,424,338,426,336,428,337,435,339,433,339,436,338,442,342,446,340,451,342,453,341,459,339,462,342,465,345,464,344,469,347,466,345,472,349,473,351,475,350,478,352,481,350,485,341,481,334,481,332,476,333,473,330,470,329,472,331,479,329,481,324,476,325,472,326,469,324,466,322,470,320,470,317,474,310,473,303,464,298,468,296,463,291,464,291,462,292,462,289,458,290,455,289,451,286,448,276,443,276,441,274,439,272,440,267,439,266,443,267,445,264,446,262,449,259,450,257,448,258,446,263,443,264,442,259,439,256,441,256,431,252,437,252,438,252,439,249,439,247,432,249,428,242,425,237,426,234,420,228,417,229,414,236,416,237,415,237,412,235,408,227,408,227,403,226,400,228,395,226,391,224,385,223,382,224,380,217,366,212,362,216,351,226,349,234,344,239,333,243,333,243,333,244,333,246,330,244,323,250,320,268,315,272,310,270,306,273,306,274,302,267,295,269,292,271,293,270,291,273,291,274,287,276,286,274,279,277,278,284,279,289,276,288,278,293,277,310,275,314,267,317,266,320,267,328,263,331,267,340,265,337,276,339,279,343,282,343,287,338,286,340,290,336,294,341,296,341,299,333,301,334,306,334,311,338,314,336,318,338,323,340,323,341,330,337,335,343,341,339,346,339,352,335,354" style="fill:orangered;stroke:white;stroke-width:5;fill-rule:evenodd;"/>
	<polygon id="UA-26" onclick="myPopup('https://en.wikipedia.org/wiki/Ivano-Frankivsk_Oblast', 'Info', 850, 700);" onmouseover="displayName('Ivano-Frankivsk Oblast')" points="230,583,231,583,232,576,236,567,235,559,232,556,232,547,236,538,237,532,241,531,247,524,250,525,248,518,254,515,263,504,272,497,282,497,285,499,287,497,289,486,285,469,285,467,292,462,289,458,290,455,288,451,285,448,276,444,276,441,274,439,272,441,267,439,266,444,267,445,264,446,262,449,259,450,257,448,258,446,260,445,263,444,264,442,263,442,259,439,256,442,256,431,255,432,252,437,252,439,249,439,248,435,247,433,249,429,244,426,242,425,237,426,234,421,228,417,229,414,236,417,237,416,237,412,235,408,227,408,226,404,226,401,228,395,225,390,223,383,224,380,217,367,212,362,202,357,187,357,188,365,185,374,190,376,184,384,182,381,177,383,180,387,184,385,184,392,189,394,191,396,189,400,184,400,165,406,158,404,156,412,150,407,145,409,128,409,126,420,117,428,116,436,119,441,117,457,122,459,128,467,132,466,136,467,136,471,140,477,145,479,148,481,146,485,148,488,148,488,153,484,158,485,165,480,166,501,170,504,177,504,179,498,182,501,182,504,182,505,186,504,199,519,197,527,208,539,202,551,202,553,209,558,210,565,221,569,227,579" style="fill:orangered;stroke:white;stroke-width:5;fill-rule:evenodd;"/>
	<polygon id="UA-21" onclick="myPopup('https://en.wikipedia.org/wiki/Zakarpattia_Oblast', 'Info', 850, 700);" onmouseover="displayName('Zakarpattia Oblast')" points="21,442,19,446,16,451,16,461,9,466,6,471,0,476,2,481,0,494,8,495,12,496,9,502,15,502,15,509,22,518,30,515,35,522,39,533,40,536,46,536,50,533,52,533,54,533,62,540,59,549,64,553,67,552,65,545,74,547,79,543,81,533,86,533,91,536,95,535,97,541,103,545,106,548,111,551,116,545,125,549,136,549,141,551,143,555,153,552,160,553,168,559,169,557,177,560,184,556,190,552,201,553,203,553,203,550,209,541,197,527,200,521,195,513,186,504,183,506,183,501,180,498,177,504,171,504,166,501,166,496,166,480,159,485,154,484,150,489,148,489,147,484,148,481,145,478,141,478,138,474,136,472,136,467,132,466,129,468,123,459,116,456,103,455,100,451,96,453,96,450,93,452,86,449,80,438,67,441,63,428,61,421,54,417,46,417,37,411,34,415,35,419,34,425,27,424,26,431,25,431,25,437,21,440" style="fill:orangered;stroke:white;stroke-width:5;fill-rule:evenodd;" />
	<polygon id="UA-77" onclick="myPopup('https://en.wikipedia.org/wiki/Chernivtsi_Oblast', 'Info', 850, 700);" onmouseover="displayName('Chernivtsi Oblast')" points="308,552,303,555,285,554,270,558,263,558,255,561,254,567,250,572,247,578,230,583,232,576,235,567,234,558,231,556,232,546,235,538,237,532,241,531,246,524,248,524,248,518,254,515,262,504,272,497,282,497,284,498,287,497,288,485,284,467,291,462,291,464,296,464,298,468,303,464,310,473,317,474,320,470,322,470,324,466,326,469,325,473,324,476,329,481,331,479,329,472,330,470,332,472,333,474,332,477,334,481,341,481,350,485,352,481,360,480,368,492,372,492,372,488,371,486,373,484,376,486,379,485,377,482,372,481,372,478,374,478,379,482,382,479,379,474,382,473,383,478,385,479,385,472,389,472,389,475,389,478,392,482,400,475,404,475,407,479,413,478,416,475,424,477,426,473,423,472,426,470,431,473,435,469,438,472,443,477,446,490,439,495,436,492,431,492,425,502,420,501,408,496,406,501,403,501,403,503,392,496,390,500,386,499,388,510,386,510,379,504,377,509,372,509,372,518,370,516,366,521,361,520,356,523,347,524,343,537,339,540,335,549" style="fill:orangered;stroke:white;stroke-width:5;fill-rule:evenodd;"/>

  <!-- Сentral regions: -->
  <polygon id="UA-68" onclick="myPopup('https://en.wikipedia.org/wiki/Khmelnytskyi_Oblast', 'Info', 850, 700);" onmouseover="displayName('Khmelnytskyi Oblast')" points="341,373,339,376,340,380,340,383,342,388,341,389,341,392,337,394,337,401,339,403,337,407,339,413,336,417,339,421,337,424,338,425,336,429,336,434,338,432,339,436,337,442,339,444,343,446,339,449,341,454,339,463,342,464,343,464,344,469,347,466,345,472,351,475,351,480,351,481,360,480,367,492,371,492,372,489,370,486,372,484,376,487,379,485,376,482,371,481,371,479,373,478,379,482,381,479,378,474,381,473,382,478,384,479,384,472,389,472,389,478,392,482,399,476,403,475,406,479,412,478,415,475,423,477,425,473,423,472,425,470,431,473,434,469,432,466,434,465,436,460,436,450,438,452,436,446,437,437,435,433,435,427,435,422,443,407,450,408,455,402,468,408,470,404,476,402,474,391,477,389,473,381,470,376,474,371,472,370,462,369,464,365,466,364,463,361,464,356,468,357,468,355,467,352,470,346,471,342,465,338,466,334,472,334,471,331,475,327,472,328,460,322,456,322,453,314,452,310,446,309,449,306,453,304,449,297,453,297,458,294,460,292,454,289,455,285,457,284,456,282,458,278,454,274,453,266,453,265,450,267,449,270,446,271,438,264,436,263,434,260,427,253,426,251,421,249,421,245,427,238,425,238,423,235,423,234,420,231,415,231,410,222,408,227,400,234,396,231,386,235,385,238,380,239,377,248,359,267,354,265,349,274,339,280,343,283,343,287,338,286,339,290,336,294,340,296,340,299,333,301,334,306,334,311,337,314,336,318,337,323,339,324,340,331,337,335,341,339,341,343,340,345,338,352,335,353,333,360,335,364,336,369" style="fill:yellow;stroke:white;stroke-width:5;fill-rule:evenodd;"/>
  <polygon id="UA-18" onclick="myPopup('https://en.wikipedia.org/wiki/Zhytomyr_Oblast', 'Info', 850, 700);" onmouseover="displayName('Zhytomyr Oblast')" points="600,127,602,130,601,136,597,143,592,144,592,150,594,156,595,159,600,155,603,160,607,162,610,165,610,169,609,176,608,178,603,176,603,178,603,180,614,192,612,196,611,202,616,201,618,207,620,211,615,215,609,225,613,228,611,231,608,233,613,237,610,241,607,241,608,244,605,245,606,248,613,244,616,248,619,256,620,260,624,260,628,266,628,276,631,279,629,281,631,283,627,286,626,291,626,295,627,299,631,306,628,311,624,313,615,320,610,322,607,323,605,325,608,328,605,334,610,334,610,339,606,341,601,346,598,346,597,345,592,347,592,350,580,349,575,349,574,348,571,348,568,348,567,344,567,340,564,336,570,332,569,329,564,326,564,318,565,316,562,315,561,312,556,311,554,312,553,315,548,320,546,323,541,323,538,321,535,323,535,327,529,320,525,325,523,321,520,323,519,325,516,327,511,325,509,324,506,325,502,326,498,326,490,329,486,327,480,327,473,328,470,326,461,322,458,322,454,315,453,310,447,309,449,306,453,305,449,297,454,297,459,294,460,292,455,289,455,285,458,284,456,282,458,278,454,274,454,267,453,265,451,267,449,270,447,271,442,267,439,264,436,263,435,260,427,253,427,251,422,250,422,245,428,239,426,238,424,235,424,234,422,232,421,231,424,225,418,221,425,207,419,179,421,173,428,165,441,144,437,137,444,132,445,119,452,127,450,115,459,112,465,116,471,108,471,98,476,95,480,99,483,103,492,103,498,102,501,96,503,92,508,91,508,93,508,97,511,98,514,102,515,108,522,105,528,101,533,102,538,102,538,108,540,113,540,117,542,119,546,117,549,122,550,120,550,114,554,108,559,103,566,102,570,102,572,98,575,96,578,94,581,94,584,96,585,97,585,100,586,102,589,106,589,109,588,111,590,116,594,120,594,123,595,126,599,127" style="fill:yellow;stroke:white;stroke-width:5;fill-rule:evenodd;"/>
  <polygon id="UA-05" onclick="myPopup('https://en.wikipedia.org/wiki/Vinnytsia_Oblast', 'Info', 850, 700);" onmouseover="displayName('Vinnytsia Oblast')" points="454,485,454,491,460,492,466,490,474,496,476,498,479,505,494,509,495,518,496,520,500,515,504,522,513,517,517,517,518,522,514,529,514,532,521,525,523,528,522,532,524,539,527,533,534,526,543,528,545,532,556,531,558,541,560,546,567,545,571,539,575,537,574,530,580,528,591,537,607,533,611,536,627,537,629,530,624,524,631,524,635,522,635,516,631,514,634,509,634,502,646,492,647,497,648,501,653,496,652,495,659,490,656,488,650,490,649,488,654,484,655,478,650,471,650,465,640,458,644,454,642,452,634,452,632,442,626,438,630,433,623,429,625,423,624,421,620,419,620,415,627,410,625,408,631,405,628,402,629,399,626,397,627,393,625,393,624,393,619,385,615,384,611,380,612,374,615,373,618,369,614,362,618,360,618,356,610,352,609,349,612,347,612,342,607,341,600,346,597,345,591,348,591,350,576,349,574,348,567,347,567,339,564,336,570,332,570,329,564,326,564,319,565,316,564,315,561,313,559,312,555,312,554,314,548,319,546,324,541,323,538,321,536,322,535,326,529,320,525,325,524,321,521,322,517,326,515,327,509,324,503,326,497,326,490,329,485,327,476,327,472,330,473,334,470,334,467,334,465,338,471,342,471,346,467,352,469,355,469,357,465,356,463,361,467,364,465,366,464,369,473,370,474,372,470,376,472,379,474,381,476,387,477,389,474,391,477,403,471,404,468,408,455,402,450,408,444,407,442,410,435,422,436,427,435,432,437,438,436,445,438,452,436,450,437,461,433,467,435,469,440,473,443,477,446,490" style="fill:yellow;stroke:white;stroke-width:5;fill-rule:evenodd;"/>
  <polygon id="UA-32" onclick="myPopup('https://en.wikipedia.org/wiki/Kyiv_Oblast', 'Info', 850, 700);" onmouseover="displayName('Kyiv Oblast')" points="700,144,697,141,692,141,690,137,690,136,683,136,680,130,682,123,677,120,671,116,667,112,663,112,649,112,647,117,645,114,642,118,641,119,635,119,633,118,629,112,624,111,620,113,619,115,619,117,614,117,613,118,612,121,610,123,609,125,606,124,605,124,600,124,599,126,600,127,601,130,601,135,600,138,598,143,592,144,592,148,592,152,595,159,600,155,601,158,605,161,609,163,610,168,610,173,608,177,608,178,603,176,603,180,613,192,614,193,613,196,611,202,616,201,620,212,615,216,609,225,613,228,611,230,609,233,608,233,612,236,612,239,610,241,607,242,607,243,605,249,613,243,615,248,620,261,624,260,627,264,628,267,628,271,628,274,628,276,631,279,629,281,631,283,627,286,626,293,627,299,631,305,631,307,628,311,621,315,616,319,607,324,605,325,608,328,605,334,610,334,610,338,607,341,612,342,612,344,612,347,609,349,611,352,618,356,618,360,614,362,618,369,615,373,612,374,611,379,614,383,619,385,621,389,624,393,627,393,628,394,629,394,631,396,632,400,635,400,639,401,642,401,643,398,646,393,648,390,651,389,653,389,655,386,663,388,662,383,666,381,667,383,667,386,667,389,673,389,681,390,684,393,686,393,687,384,687,380,689,377,693,382,700,380,703,382,704,378,708,379,710,379,713,382,720,380,720,378,723,380,725,377,728,381,730,379,730,374,736,366,742,362,746,355,749,352,746,345,750,341,750,337,749,336,750,333,752,332,754,328,751,327,752,322,751,320,753,314,758,316,764,309,772,310,777,317,779,314,783,316,785,312,787,317,794,318,798,312,800,310,800,306,802,302,803,297,809,295,808,288,807,286,812,281,812,280,814,280,820,275,817,271,820,267,825,268,828,265,827,262,827,262,829,258,828,255,824,251,827,246,823,247,819,241,815,237,819,235,823,235,823,232,823,229,815,230,810,224,807,220,804,219,800,220,800,228,796,231,792,229,788,233,783,234,778,233,774,236,772,236,770,234,768,234,765,232,764,234,761,234,759,234,758,232,757,232,756,227,754,227,750,224,754,221,754,214,749,211,750,210,744,207,743,203,742,199,740,204,732,203,729,206,726,204,723,206,718,202,714,203,716,195,716,190,706,186,708,179,704,172,702,174,698,171,696,173,695,172,696,159,697,150,695,144,697,144" style="fill:yellow;stroke:white;stroke-width:5;fill-rule:evenodd;"/>
  <polygon id="UA-71" onclick="myPopup('https://en.wikipedia.org/wiki/Cherkasy_Oblast', 'Info', 850, 700);" onmouseover="displayName('Cherkasy Oblast')" points="712,452,722,455,725,452,735,454,742,457,745,457,751,453,760,453,762,457,765,454,772,455,775,449,775,445,779,443,781,431,790,433,792,429,797,429,805,432,808,436,808,441,810,441,814,435,818,433,821,430,823,434,827,432,828,435,830,431,830,426,834,423,839,416,842,416,845,411,846,411,850,416,852,417,854,414,856,414,857,420,861,424,862,432,864,432,864,427,871,430,876,423,884,428,889,420,887,419,884,404,881,399,884,389,884,381,882,372,874,362,882,352,881,347,878,344,877,338,865,333,866,327,864,324,861,324,857,321,853,320,849,313,853,308,853,307,853,300,848,297,846,291,839,289,838,289,838,282,842,279,840,277,837,279,834,275,831,275,825,267,820,267,817,271,819,275,813,280,812,280,806,286,808,289,808,295,803,297,802,301,799,307,800,309,796,313,794,318,787,317,785,312,783,315,779,313,776,317,772,310,764,309,758,315,752,313,750,320,751,322,750,327,754,328,753,331,750,333,749,336,750,336,750,340,747,344,748,352,746,354,743,360,735,366,730,373,730,378,728,380,725,376,724,378,723,379,720,377,720,378,712,381,710,378,704,378,703,381,701,380,692,381,689,377,687,378,686,386,686,390,685,391,683,392,682,389,667,389,666,380,662,382,662,386,655,385,654,388,648,389,643,396,642,400,634,400,631,400,631,396,627,393,626,396,629,398,628,401,630,403,631,404,625,407,628,409,620,414,620,418,624,420,624,422,623,429,629,432,630,432,626,437,631,440,634,451,642,451,645,453,640,457,650,464,650,471,655,477,654,483,649,487,650,490,656,486,660,490,662,490,668,484,672,488,676,483,683,481,686,480,686,475,689,474,692,476,694,477,700,476,700,470,696,469,704,461,702,457,709,453" style="fill:yellow;stroke:white;stroke-width:5;fill-rule:evenodd;"/>
  <polygon id="UA-35" onclick="myPopup('https://en.wikipedia.org/wiki/Kirovohrad_Oblast', 'Info', 850, 700);" onmouseover="displayName('Kirovohrad Oblast')" points="885,390,879,397,884,402,884,409,885,415,889,418,883,427,875,424,869,430,864,427,863,430,859,431,857,421,857,414,852,417,846,410,841,415,839,415,829,424,829,434,827,434,826,431,823,433,820,430,813,433,806,440,804,432,790,428,789,432,781,431,779,440,775,445,774,452,763,455,754,452,749,453,745,457,738,454,733,452,720,453,712,450,701,457,704,461,702,463,697,468,701,472,699,478,691,479,690,475,685,475,685,480,678,483,671,490,668,485,662,490,657,491,652,495,652,496,647,501,646,493,634,501,634,510,631,514,634,516,635,521,637,520,643,524,646,519,649,521,652,519,656,528,657,530,660,529,661,531,664,528,667,531,669,529,677,531,680,529,684,525,698,527,703,530,708,524,719,525,721,527,723,522,727,527,729,525,733,525,735,519,751,520,751,526,755,527,753,531,763,533,769,530,770,534,778,533,777,539,777,541,779,540,780,538,782,535,784,537,785,532,787,533,792,536,799,534,800,540,801,541,794,545,800,555,804,553,807,560,805,566,807,571,814,572,818,569,822,571,826,575,826,577,829,578,832,578,836,570,841,568,847,573,849,570,856,574,874,572,874,566,877,565,874,559,878,556,876,553,877,548,884,547,886,552,889,548,893,548,891,543,894,541,899,541,905,550,907,543,910,541,911,537,920,537,922,525,925,535,927,527,930,523,934,527,941,520,945,519,946,509,943,508,940,493,942,491,940,484,937,479,949,477,950,479,954,474,965,464,971,465,971,464,965,462,964,458,959,459,955,457,951,457,948,453,947,451,949,447,952,451,957,447,960,450,963,446,966,446,967,451,969,447,970,453,978,439,963,430,963,434,960,433,958,439,953,432,949,430,948,433,935,426,934,430,927,424,930,416,927,416,927,413,918,413,915,408,903,398" style="fill:yellow;stroke:white;stroke-width:5;fill-rule:evenodd;"/>
  <polygon id="UA-74" onclick="myPopup('https://en.wikipedia.org/wiki/Chernihiv_Oblast', 'Info', 850, 700);" onmouseover="displayName('Chernihiv Oblast')" points="702,87,705,84,704,76,706,74,708,70,711,65,714,61,721,60,719,55,725,53,729,48,732,49,732,42,730,38,747,36,756,43,758,43,759,40,761,37,769,33,785,33,793,34,801,34,805,34,810,36,812,45,820,42,829,43,835,40,842,37,848,24,851,19,849,10,850,7,858,7,863,10,865,8,876,14,882,16,891,15,895,20,904,11,911,10,911,7,915,6,920,2,925,1,931,5,935,2,936,4,935,8,934,11,933,15,932,17,931,19,928,22,929,29,931,32,935,32,940,38,944,38,942,42,941,43,939,44,937,42,932,41,932,44,932,47,932,50,935,55,933,57,930,56,919,61,915,60,915,63,912,64,912,68,907,71,907,77,911,84,915,88,912,91,916,94,916,100,917,101,915,103,917,107,918,109,916,111,912,110,911,114,910,117,912,120,912,122,912,124,912,128,910,128,906,126,905,124,902,124,902,126,903,129,906,131,906,135,907,137,907,141,907,144,905,144,905,148,898,152,899,154,899,157,896,160,901,163,905,164,907,163,907,165,907,167,910,169,913,170,916,166,920,166,920,169,915,173,917,177,918,181,918,186,913,190,913,196,911,200,915,204,915,204,916,208,914,209,913,210,913,213,910,216,911,221,909,226,907,231,904,237,901,240,898,240,898,243,894,244,893,247,892,249,887,249,885,250,880,253,875,253,874,251,872,252,868,253,861,252,860,252,860,249,856,246,853,250,849,246,844,248,843,250,838,255,837,255,835,254,831,255,828,257,824,251,826,246,826,246,822,247,814,235,822,235,822,230,813,229,805,218,801,219,800,228,796,231,791,229,788,232,782,234,778,233,773,236,770,235,765,232,764,234,758,234,757,232,756,227,754,226,749,223,754,221,754,215,750,211,749,209,744,206,741,198,739,203,730,203,728,206,726,204,723,207,717,202,714,203,717,194,717,190,705,186,707,179,704,171,701,173,696,171,694,173,695,157,698,149,695,143,700,145,698,141,700,140,700,135,708,131,706,128,707,126,704,122,700,119,702,114,700,108,700,104,696,103,695,98,700,94,700,92" style="fill:yellow;stroke:white;stroke-width:5;fill-rule:evenodd;"/>
  <polygon id="UA-53" onclick="myPopup('https://en.wikipedia.org/wiki/Poltava_Oblast', 'Info', 850, 700);" onmouseover="displayName('Poltava Oblast')" points="884,391,885,389,894,394,904,399,915,407,918,413,925,413,927,415,930,416,930,418,928,419,927,422,934,430,936,427,945,433,947,434,951,431,955,433,957,438,959,433,962,435,965,430,1001,454,1009,448,1006,446,1011,441,1010,438,1008,435,1010,423,1015,423,1014,421,1017,416,1019,412,1021,413,1035,407,1044,404,1049,400,1055,400,1057,400,1056,404,1058,405,1060,399,1067,402,1062,392,1070,382,1075,384,1087,385,1099,374,1093,364,1095,361,1104,362,1109,359,1100,354,1107,351,1103,344,1103,336,1098,336,1097,340,1089,336,1083,317,1078,316,1077,317,1068,314,1068,311,1061,312,1055,305,1053,298,1060,291,1061,279,1052,277,1047,281,1042,278,1041,282,1034,283,1031,281,1027,282,1023,284,1021,279,1027,275,1025,269,1020,266,1019,262,1016,266,1013,258,1015,252,1005,240,1003,229,996,233,994,233,995,237,991,237,989,238,980,236,977,231,969,234,971,236,965,238,962,241,958,241,950,234,945,236,932,233,921,229,918,232,907,231,903,238,898,240,897,242,894,243,892,247,887,249,881,253,875,252,874,250,869,252,859,252,859,249,856,245,853,249,849,246,842,248,842,250,837,254,833,254,828,257,828,259,827,261,828,264,825,267,829,271,831,275,833,275,836,279,840,277,842,279,838,283,838,288,838,290,846,291,848,297,853,301,852,308,853,309,849,313,852,320,857,321,861,325,864,325,866,327,865,333,877,339,877,344,881,348,882,353,874,362,882,373,885,381" style="fill:yellow;stroke:white;stroke-width:5;fill-rule:evenodd;"/>
  <polygon id="UA-59" onclick="myPopup('https://en.wikipedia.org/wiki/Sumy_Oblast', 'Info', 850, 700);" onmouseover="displayName('Sumy Oblast')" points="969,3,972,8,976,10,981,19,989,23,992,27,994,31,992,34,992,41,992,46,997,53,995,53,999,55,1005,62,1005,64,1011,62,1012,65,1016,67,1021,75,1020,80,1020,83,1011,84,1005,86,997,86,993,89,993,94,999,95,998,101,1003,104,1005,108,1005,113,1004,118,1005,122,1001,124,1011,128,1011,132,1008,136,1003,140,1003,142,1011,145,1016,141,1029,144,1037,143,1040,150,1046,152,1055,152,1059,149,1061,149,1064,145,1071,149,1072,147,1074,146,1078,149,1077,154,1079,157,1080,160,1080,163,1083,168,1090,166,1096,166,1101,169,1099,171,1095,173,1093,174,1093,177,1093,180,1096,180,1100,185,1098,189,1101,192,1101,199,1105,201,1107,209,1105,212,1109,214,1101,218,1104,226,1104,236,1108,241,1114,240,1115,241,1117,249,1119,252,1123,254,1125,256,1123,259,1120,257,1116,257,1110,259,1109,261,1100,255,1101,262,1094,259,1093,264,1090,264,1089,270,1086,270,1079,267,1077,271,1072,272,1072,277,1066,273,1062,279,1053,277,1047,281,1043,278,1040,284,1034,284,1033,282,1024,284,1022,279,1028,275,1026,270,1021,266,1019,262,1017,266,1014,258,1016,253,1005,240,1004,229,1001,231,998,232,995,234,995,237,991,237,990,239,981,236,977,231,969,234,972,237,965,239,963,241,959,242,951,235,945,236,932,234,928,231,922,229,919,233,915,233,909,232,907,231,910,222,910,216,913,213,913,211,916,208,914,202,911,200,913,194,912,190,918,185,916,176,915,174,920,169,919,166,916,165,913,170,908,168,906,163,904,164,896,160,899,157,899,153,905,147,905,146,907,142,906,131,901,124,905,123,907,127,912,129,914,123,910,117,912,110,916,111,919,109,915,104,916,99,915,93,912,91,914,89,906,77,907,71,912,68,912,65,914,62,914,61,919,61,930,56,933,57,935,54,932,50,931,42,938,42,939,44,942,42,944,38,940,38,935,32,930,32,929,28,927,22,931,18,936,4,940,6,944,2,945,6,944,10,946,12,948,13,950,8,961,4,965,4" style="fill:yellow;stroke:white;stroke-width:5;fill-rule:evenodd;"/>

  <!-- East: -->
  <polygon id="UA-51" onclick="myPopup('https://en.wikipedia.org/wiki/Odessa_Oblast', 'Info', 850, 700);" onmouseover="displayName('Odessa Oblast')" points="537,893,552,897,549,893,553,881,564,886,576,878,584,873,593,868,602,866,614,870,622,876,625,886,625,894,631,894,631,877,630,865,619,861,627,852,621,852,619,836,623,824,625,831,630,840,635,844,641,837,638,827,646,830,648,818,656,818,660,826,662,810,663,820,675,811,692,791,707,769,707,753,715,750,719,742,715,737,719,726,728,726,740,720,751,720,751,704,745,690,737,679,749,675,758,668,762,661,755,651,745,647,752,640,739,640,727,637,721,619,725,604,716,592,705,594,695,594,686,584,686,572,678,554,671,546,672,538,678,531,656,530,652,519,643,525,635,521,627,526,627,535,618,538,607,531,593,538,577,529,569,542,561,545,570,558,581,551,586,560,590,564,585,572,588,578,588,595,581,607,584,620,593,619,601,627,603,636,613,629,619,637,614,644,617,652,610,657,615,660,623,667,619,679,627,684,634,688,641,690,647,696,650,706,650,716,650,726,646,732,652,737,658,742,663,747,655,751,642,754,631,737,629,746,621,753,613,742,611,737,601,742,589,749,586,729,565,741,566,755,566,765,572,777,565,783,566,795,550,802,550,814,545,822,536,827,528,838,532,848,531,859,515,858,504,864,509,869,513,879,524,887" style="fill:greenyellow;stroke:white;stroke-width:5;fill-rule:evenodd;"/>
  <polygon id="UA-48" onclick="myPopup('https://en.wikipedia.org/wiki/Mykolaiv_Oblast', 'Info', 850, 700);" onmouseover="displayName('Mykolaiv Oblast')" points="752,718,750,708,751,695,748,691,746,687,738,681,739,678,743,676,745,674,748,675,754,675,760,666,762,658,760,658,755,649,752,651,744,647,750,642,749,637,738,640,737,636,727,636,722,619,727,604,723,601,723,598,718,598,719,594,716,593,713,593,711,596,708,593,701,591,698,594,689,592,687,584,687,582,685,579,686,574,680,568,676,551,674,547,670,547,672,541,671,539,678,535,677,532,680,529,684,526,695,526,704,530,707,525,719,524,720,529,723,523,727,528,730,524,735,524,736,520,742,519,745,520,746,519,749,520,751,520,752,524,754,525,754,531,763,532,767,530,770,533,774,531,779,531,779,537,776,540,779,540,779,538,779,535,783,536,786,531,791,535,796,534,800,539,795,544,800,554,803,553,808,560,808,563,804,565,807,571,815,573,817,568,824,572,828,577,832,579,834,575,837,569,842,568,847,571,851,572,858,575,873,572,873,567,875,566,873,560,879,558,879,556,876,555,876,552,877,549,882,548,886,552,889,549,892,548,892,544,895,541,899,541,902,545,905,549,905,556,909,557,907,563,906,576,910,579,901,582,903,590,900,597,909,598,912,605,912,621,907,614,903,620,904,623,909,624,911,632,911,638,913,643,913,648,910,645,905,650,899,648,894,660,909,670,904,676,899,671,898,677,903,678,903,680,900,680,896,684,885,687,888,689,892,687,896,688,895,690,891,691,889,691,887,693,883,692,880,694,872,689,863,688,863,691,860,692,855,691,850,691,848,696,839,694,831,703,826,704,824,702,821,706,815,707,813,695,821,685,820,678,814,679,817,669,808,671,810,658,805,655,806,647,800,645,799,638,797,640,798,644,799,647,804,649,803,656,808,659,806,671,806,673,814,672,811,679,811,681,817,681,817,685,813,691,809,692,806,698,812,705,810,710,812,715,804,719,790,714,785,715,782,720,776,718,778,712,782,703,781,701,786,693,779,701,778,704,775,701,773,696,773,702,776,706,777,708,773,715,771,715,769,718,763,721" style="fill:greenyellow;stroke:white;stroke-width:5;fill-rule:evenodd;"/>
  <polygon id="UA-65" onclick="myPopup('https://en.wikipedia.org/wiki/Kherson_Oblast', 'Info', 850, 700);" onmouseover="displayName('Kherson Oblast')" points="845,781,840,780,840,777,840,774,841,772,840,771,837,772,836,773,832,772,828,770,827,767,824,763,819,763,816,760,813,758,810,757,809,757,809,760,808,762,806,762,804,762,800,760,799,757,801,756,803,754,806,754,809,754,813,754,816,754,819,752,820,751,821,748,823,748,824,748,824,744,821,742,819,739,816,739,814,741,813,741,811,738,807,737,804,736,800,735,795,734,793,734,793,737,792,739,792,741,789,736,786,731,783,729,780,727,779,725,785,729,788,729,792,729,795,728,798,727,801,728,805,731,808,732,811,732,814,732,817,732,820,733,823,734,826,733,828,733,832,734,835,735,838,734,841,737,843,738,846,738,851,738,853,736,854,734,853,732,854,730,857,728,860,726,861,724,864,723,867,720,870,718,870,717,869,717,868,718,864,720,860,723,856,725,852,726,848,727,844,727,842,723,840,720,836,722,832,724,831,725,829,723,829,721,827,719,824,719,820,717,818,715,817,713,816,705,818,705,820,706,821,706,823,703,824,702,825,702,827,704,829,704,831,704,834,703,834,701,836,699,836,696,838,695,840,695,842,695,845,696,847,697,849,697,850,694,850,692,851,691,854,691,857,691,858,692,859,693,861,693,862,692,863,690,863,688,864,686,866,688,868,689,870,688,871,688,873,691,876,692,877,693,880,694,881,694,883,692,884,692,885,693,887,693,889,693,891,691,893,690,895,690,898,689,897,688,893,688,892,687,890,689,887,688,886,687,886,686,888,685,891,684,894,684,895,685,898,681,900,681,902,679,903,678,901,678,899,677,898,675,898,673,898,671,899,671,901,673,902,674,904,675,906,672,906,670,907,669,903,665,899,664,897,662,896,662,895,660,895,657,897,654,898,651,899,649,900,648,901,648,903,649,906,649,907,646,908,645,910,645,912,647,913,644,913,641,911,639,910,637,910,637,911,633,911,628,911,626,910,624,909,624,907,624,906,623,905,622,904,619,904,618,906,617,907,614,907,617,908,619,909,620,911,620,912,620,912,618,912,615,912,613,913,612,911,609,912,607,911,605,910,603,910,601,910,600,911,600,914,600,915,601,917,602,925,602,926,605,928,609,930,610,933,607,938,606,942,606,942,603,943,601,946,600,948,600,951,599,951,601,949,603,949,606,951,608,953,608,955,610,957,612,959,612,962,612,973,608,979,608,984,610,991,612,996,613,1000,613,1002,612,1009,637,1010,638,1013,636,1017,638,1019,636,1020,633,1022,632,1026,632,1028,632,1028,634,1026,634,1025,636,1025,638,1025,640,1027,641,1028,642,1026,644,1026,648,1026,651,1026,655,1026,658,1029,658,1031,662,1031,664,1031,668,1031,671,1034,672,1035,674,1035,676,1038,677,1040,677,1040,679,1043,680,1045,680,1046,682,1046,685,1048,687,1050,688,1052,690,1050,692,1049,695,1047,696,1046,697,1046,700,1045,702,1044,703,1042,705,1042,706,1041,706,1037,707,1036,708,1037,710,1040,711,1041,712,1043,713,1045,714,1047,715,1046,718,1045,721,1044,721,1047,725,1048,726,1048,728,1051,729,1057,728,1057,730,1056,731,1055,733,1057,734,1058,734,1060,734,1062,734,1064,736,1065,737,1067,737,1069,737,1071,738,1071,741,1071,744,1073,746,1073,749,1072,752,1072,755,1073,759,1075,761,1073,763,1069,764,1067,766,1063,768,1059,765,1057,767,1056,769,1054,771,1053,772,1053,777,1053,781,1054,783,1053,786,1053,790,1054,792,1055,795,1055,797,1056,801,1057,803,1058,805,1058,808,1058,810,1061,814,1062,818,1063,820,1063,822,1063,824,1063,825,1061,822,1061,820,1060,817,1059,815,1057,815,1057,815,1057,817,1056,818,1053,819,1052,819,1051,817,1052,816,1053,814,1054,812,1054,810,1054,809,1055,808,1053,806,1052,803,1052,798,1050,793,1049,791,1047,792,1047,796,1046,798,1043,797,1042,796,1044,797,1046,796,1045,794,1043,790,1043,788,1040,786,1041,784,1045,782,1049,785,1051,784,1050,779,1044,775,1041,773,1037,774,1036,777,1037,781,1037,784,1036,787,1036,790,1033,794,1032,796,1032,798,1029,797,1026,797,1024,800,1021,797,1019,797,1018,794,1020,792,1023,791,1020,788,1020,785,1022,781,1024,780,1027,781,1028,781,1029,784,1030,785,1033,781,1032,777,1032,774,1029,773,1028,776,1027,777,1026,778,1024,778,1021,776,1019,776,1017,774,1017,772,1015,772,1013,771,1012,768,1010,770,1009,771,1010,773,1012,774,1012,776,1012,781,1012,784,1010,783,1009,779,1007,775,1002,776,1003,778,1003,780,1004,781,1006,778,1006,781,1006,785,1005,787,1004,788,1001,786,1001,784,1001,786,998,784,998,783,1000,781,1000,778,1000,774,1002,773,1004,772,1006,771,1005,768,1001,763,999,761,998,761,996,763,997,766,997,769,998,771,998,773,999,776,999,779,995,776,996,773,996,770,994,773,992,774,994,775,995,778,995,781,993,782,991,779,989,776,988,779,987,780,985,775,983,773,982,770,982,768,977,769,976,768,975,767,972,769,967,765,964,766,961,769,957,766,955,766,953,767,954,773,954,775,955,777,955,778,953,779,953,777,952,776,951,776,949,777,946,780,945,782,945,783,946,785,948,785,944,786,944,788,944,791,943,793,942,790,940,788,938,790,937,790,935,787,934,785,934,783,932,782,928,783,926,785,927,782,928,779,923,778,921,778,920,779,919,774,920,769,917,775,916,778,911,780,907,777,904,774,903,780,901,781,898,780,894,782,890,780,885,780,882,778,879,781,877,782,873,782,868,783,864,784,862,787" style="fill:greenyellow;stroke:white;stroke-width:5;fill-rule:evenodd;"/>
  <polygon id="UA-43" onclick="myPopup('https://en.wikipedia.org/wiki/Autonomous_Republic_of_Crimea', 'Info', 850, 700);" onmouseover="displayName('Autonomous Republic of Crimea')" points="1064,826,1067,835,1073,845,1077,852,1083,860,1087,865,1090,870,1094,875,1097,879,1100,881,1102,883,1104,884,1104,887,1104,888,1101,889,1100,889,1099,888,1097,886,1093,884,1092,884,1090,882,1086,880,1083,878,1079,880,1077,879,1074,876,1072,873,1071,870,1069,868,1072,866,1075,865,1076,862,1075,859,1075,858,1075,855,1074,852,1072,849,1071,849,1072,845,1069,845,1067,843,1067,839,1066,837,1063,837,1061,838,1059,836,1058,834,1055,834,1055,832,1057,829,1057,829,1054,831,1052,831,1050,831,1047,830,1045,830,1048,827,1049,825,1049,824,1048,823,1047,821,1047,820,1046,819,1044,820,1043,821,1041,823,1040,823,1040,821,1041,820,1041,817,1041,816,1044,815,1044,814,1046,814,1047,814,1048,811,1048,810,1047,810,1045,812,1045,813,1043,813,1040,813,1038,815,1035,818,1031,821,1028,823,1026,824,1024,824,1027,822,1028,819,1030,817,1031,813,1034,812,1037,810,1037,806,1038,804,1037,802,1032,801,1030,800,1032,803,1032,805,1032,806,1031,806,1030,806,1029,807,1028,809,1027,811,1026,812,1025,811,1024,808,1024,806,1025,805,1024,804,1022,805,1021,806,1021,808,1020,810,1020,812,1020,813,1019,811,1015,810,1015,808,1017,806,1019,805,1019,802,1019,801,1017,800,1016,799,1016,799,1016,797,1016,795,1014,794,1013,793,1013,795,1012,797,1010,797,1007,795,1008,791,1006,792,1005,795,1004,795,1004,792,1002,791,998,791,996,791,997,792,1002,797,1002,799,1002,801,1000,803,998,803,996,802,994,799,997,799,998,798,998,795,995,793,991,789,987,786,985,784,980,784,979,785,981,786,980,786,983,787,982,790,985,792,984,793,983,794,982,794,981,791,979,790,978,790,977,791,975,792,974,792,975,790,975,789,976,787,975,786,973,784,973,782,973,781,973,779,973,777,969,775,969,776,970,778,968,780,967,781,964,778,962,777,961,774,961,772,957,768,955,768,955,768,955,771,955,774,956,776,956,779,954,781,955,783,956,784,955,787,955,790,955,794,956,794,955,796,954,798,955,800,953,804,955,803,958,801,963,802,965,804,966,805,964,807,961,807,960,809,960,812,959,813,957,814,955,813,953,812,949,814,948,816,945,817,942,815,938,817,936,818,933,820,931,823,924,826,921,828,917,826,916,824,916,828,914,830,910,833,904,835,897,837,892,842,888,846,887,848,888,850,888,852,883,851,881,850,880,852,879,854,877,855,876,856,873,856,865,862,861,865,859,871,859,872,861,874,861,877,862,878,863,880,866,879,867,881,870,881,872,882,874,881,877,877,880,876,884,876,888,876,893,876,900,880,906,884,910,888,913,893,916,896,918,898,921,897,923,899,923,901,925,902,928,899,931,898,932,897,934,897,939,901,943,902,945,905,948,908,950,910,951,918,951,921,953,924,954,930,953,938,952,940,950,939,948,942,947,946,946,950,947,953,948,957,948,961,946,963,945,966,947,967,948,969,947,968,944,970,939,970,934,973,933,973,935,977,940,981,942,983,946,985,949,984,950,983,954,988,954,990,954,992,957,992,959,993,961,996,963,997,965,997,968,997,971,996,973,996,976,997,979,998,983,997,986,995,989,994,993,993,996,991,1000,984,1000,984,1004,984,1005,983,1007,978,1009,977,1011,978,1013,978,1015,971,1017,967,1019,961,1022,956,1027,953,1033,950,1035,950,1038,950,1044,945,1046,943,1049,943,1051,943,1053,944,1054,945,1057,943,1059,945,1061,942,1062,941,1064,941,1067,941,1070,943,1072,945,1073,947,1076,945,1078,943,1078,940,1079,937,1081,934,1082,932,1085,932,1086,931,1087,930,1088,929,1088,927,1089,925,1092,925,1094,926,1096,926,1098,928,1099,928,1097,924,1098,923,1099,923,1102,922,1103,921,1104,920,1102,917,1101,916,1101,913,1110,907,1114,906,1120,906,1126,909,1130,913,1134,916,1136,919,1137,922,1141,922,1145,922,1147,920,1149,921,1150,922,1153,919,1155,915,1157,916,1161,917,1162,919,1165,919,1169,920,1171,920,1173,918,1174,916,1178,915,1182,915,1189,912,1189,910,1188,907,1184,904,1184,894,1186,891,1188,888,1186,886,1187,885,1190,885,1192,885,1192,883,1191,882,1190,879,1192,877,1193,877,1195,877,1198,879,1203,879,1204,878,1204,875,1204,873,1203,871,1202,868,1201,868,1199,868,1199,869,1197,870,1195,871,1192,866,1191,865,1188,867,1185,867,1182,866,1181,863,1178,865,1177,866,1176,864,1176,862,1173,863,1164,863,1160,863,1159,865,1157,868,1155,870,1154,873,1154,876,1151,877,1146,875,1141,872,1139,869,1137,868,1137,866,1139,864,1140,863,1136,862,1136,865,1135,868,1132,871,1131,873,1130,876,1127,879,1125,881,1121,881,1116,884,1109,885,1105,883,1101,879,1091,870,1074,844,1064,827" style="fill:greenyellow;stroke:white;stroke-width:5;fill-rule:evenodd;"/>
  <polygon id="UA-12" onclick="myPopup('https://en.wikipedia.org/wiki/Dnipropetrovsk_Oblast', 'Info', 850, 700);" onmouseover="displayName('Dnipropetrovsk Oblast')" points="1003,455,977,439,971,452,968,447,965,446,961,450,957,446,953,449,950,448,949,451,948,454,952,457,957,457,958,460,963,460,967,462,970,463,969,465,963,465,961,470,953,474,950,479,947,476,938,482,942,493,942,496,946,514,944,518,935,526,931,524,924,535,922,526,919,537,913,537,908,544,905,545,904,556,909,557,907,569,907,575,910,580,900,581,903,589,900,596,909,598,925,603,927,609,931,610,933,607,941,606,943,601,950,599,951,608,952,608,956,613,976,608,1003,613,1014,607,1019,609,1034,600,1060,606,1062,601,1058,598,1063,579,1057,576,1059,568,1050,563,1050,560,1057,555,1060,555,1061,552,1056,551,1051,545,1053,543,1055,531,1057,530,1057,536,1064,537,1069,531,1088,530,1112,538,1120,532,1125,532,1127,534,1131,534,1135,539,1148,535,1149,543,1155,540,1153,544,1155,547,1154,552,1157,554,1159,554,1161,559,1158,563,1157,560,1155,564,1161,567,1166,563,1169,565,1168,569,1171,569,1174,571,1178,569,1178,566,1197,568,1199,564,1194,560,1204,558,1202,552,1198,551,1198,538,1206,535,1215,541,1220,543,1226,538,1223,526,1227,522,1227,510,1222,505,1217,505,1218,495,1221,493,1220,488,1225,481,1224,475,1219,475,1218,480,1214,482,1212,478,1217,472,1216,471,1213,473,1210,469,1202,471,1202,474,1190,466,1181,474,1183,480,1179,481,1178,480,1176,482,1173,480,1177,475,1174,472,1175,467,1160,456,1165,451,1159,446,1157,442,1146,440,1154,435,1151,428,1146,425,1132,431,1126,428,1123,429,1117,427,1105,427,1082,405,1072,403,1069,404,1062,398,1058,404,1056,404,1056,399,1051,399,1046,402,1034,407,1022,413,1019,412,1018,416,1013,421,1017,424,1011,424,1007,434,1011,441,1011,444,1007,444,1010,450" style="fill:greenyellow;stroke:white;stroke-width:5;fill-rule:evenodd;"/>
  <polygon id="UA-23" onclick="myPopup('https://en.wikipedia.org/wiki/Zaporizhzhia_Oblast', 'Info', 850, 700);" onmouseover="displayName('Zaporizhzhia Oblast')" points="1223,697,1213,722,1218,707,1210,699,1197,703,1194,700,1181,709,1172,721,1167,713,1160,714,1155,712,1151,715,1143,715,1127,723,1120,735,1109,739,1098,753,1083,780,1067,787,1065,787,1072,778,1083,776,1095,754,1090,754,1092,744,1092,742,1087,739,1084,733,1082,735,1086,744,1082,751,1076,761,1073,758,1071,738,1064,737,1060,733,1056,735,1056,733,1057,729,1049,729,1044,721,1047,719,1045,712,1042,713,1040,711,1036,711,1037,706,1041,706,1045,702,1047,695,1051,692,1051,689,1048,687,1045,680,1034,675,1034,671,1032,671,1031,659,1027,657,1025,645,1028,641,1025,638,1025,634,1027,632,1020,632,1016,638,1014,637,1009,638,1003,612,1014,607,1020,608,1034,600,1051,605,1060,606,1063,601,1058,598,1064,579,1058,577,1060,568,1052,563,1051,559,1058,555,1061,556,1061,551,1057,551,1053,546,1054,541,1055,531,1057,531,1057,536,1064,537,1070,531,1085,531,1089,531,1099,535,1112,538,1120,532,1125,532,1128,534,1132,535,1135,539,1148,535,1149,543,1155,541,1153,545,1155,547,1155,552,1157,555,1160,554,1161,559,1158,563,1157,562,1156,565,1162,567,1167,563,1170,566,1169,569,1172,569,1174,571,1179,570,1179,566,1182,567,1198,568,1198,571,1198,573,1205,574,1205,578,1209,583,1208,585,1213,587,1212,591,1213,595,1213,597,1219,595,1225,604,1230,600,1244,617,1247,613,1249,615,1253,615,1249,623,1248,628,1247,630,1246,625,1243,626,1241,634,1232,637,1229,633,1227,635,1228,639,1229,647,1221,647,1232,655,1233,664,1238,667,1240,665,1245,667,1241,672,1243,675,1238,677,1233,682,1236,687,1224,696" style="fill:greenyellow;stroke:white;stroke-width:5;fill-rule:evenodd;"/>
  <polygon id="UA-63" onclick="myPopup('https://en.wikipedia.org/wiki/Kharkiv_Oblast', 'Info', 850, 700);" onmouseover="displayName('Kharkiv Oblast')" points="1130,255,1129,250,1135,249,1138,244,1149,244,1159,245,1166,247,1168,254,1175,261,1176,263,1180,262,1184,258,1188,260,1192,260,1194,263,1199,263,1197,268,1199,271,1204,272,1211,263,1225,256,1232,254,1239,257,1250,253,1258,250,1261,244,1271,242,1273,250,1275,255,1278,257,1283,259,1286,261,1286,268,1284,272,1290,277,1294,286,1294,288,1305,291,1311,297,1316,302,1318,306,1318,310,1323,317,1316,320,1320,324,1318,329,1314,328,1312,334,1316,332,1317,340,1316,344,1314,348,1313,352,1315,355,1314,357,1311,362,1310,367,1304,368,1307,374,1307,382,1310,385,1311,388,1305,392,1305,396,1300,398,1292,394,1281,393,1278,396,1277,400,1284,401,1284,404,1265,416,1262,422,1261,422,1258,425,1260,433,1256,433,1251,438,1249,440,1249,445,1243,445,1242,442,1240,442,1240,446,1236,446,1236,446,1235,447,1235,450,1236,452,1233,452,1225,447,1220,451,1210,449,1209,454,1210,461,1210,468,1210,470,1205,471,1202,474,1198,471,1191,466,1182,475,1183,480,1179,481,1178,480,1176,482,1173,480,1177,475,1173,472,1176,467,1161,456,1165,451,1159,446,1157,442,1147,440,1154,436,1152,432,1150,427,1146,424,1133,431,1126,428,1124,429,1119,427,1115,426,1105,426,1083,405,1073,403,1069,404,1067,401,1063,392,1071,382,1076,385,1088,386,1099,374,1094,364,1095,361,1105,362,1108,360,1100,355,1107,352,1104,344,1104,336,1099,337,1098,340,1089,336,1087,330,1084,317,1079,316,1078,318,1069,314,1069,312,1062,312,1059,309,1055,304,1054,298,1061,291,1061,279,1065,273,1071,277,1072,272,1077,271,1079,267,1086,270,1089,270,1090,264,1092,264,1094,259,1101,261,1100,256,1108,261,1110,259,1117,257,1123,259,1125,256,1128,255" style="fill:greenyellow;stroke:white;stroke-width:5;fill-rule:evenodd;"/>
  <polygon id="UA-14" onclick="myPopup('https://en.wikipedia.org/wiki/Donetsk_Oblast', 'Info', 850, 700);" onmouseover="displayName('Donetsk Oblast')" points="1347,596,1341,605,1340,614,1342,621,1333,633,1343,636,1343,640,1336,646,1335,657,1326,670,1328,663,1322,659,1318,663,1316,659,1312,662,1305,659,1296,662,1280,659,1261,689,1260,684,1255,679,1236,687,1234,682,1238,677,1243,676,1243,674,1242,672,1245,667,1240,665,1238,667,1234,664,1232,655,1221,647,1223,646,1229,647,1229,640,1227,636,1229,633,1233,636,1241,635,1243,626,1246,625,1248,629,1249,627,1249,624,1253,615,1249,615,1247,613,1245,616,1230,600,1225,604,1219,595,1213,597,1213,593,1212,591,1213,587,1209,585,1206,578,1206,574,1198,573,1199,563,1194,560,1204,557,1202,552,1199,551,1198,537,1203,536,1207,536,1212,539,1216,542,1221,543,1226,538,1223,526,1227,524,1227,510,1222,506,1217,506,1218,496,1221,493,1220,488,1223,485,1225,481,1225,475,1219,474,1218,480,1214,482,1212,478,1217,472,1216,471,1213,473,1210,467,1209,455,1210,449,1220,451,1225,447,1232,451,1235,451,1235,447,1236,445,1239,445,1240,446,1240,442,1243,442,1243,444,1249,445,1249,440,1256,433,1260,433,1258,425,1261,422,1265,415,1284,404,1284,401,1277,399,1278,396,1281,393,1292,394,1299,398,1305,395,1305,393,1311,398,1308,399,1307,402,1315,406,1323,402,1321,412,1321,413,1323,421,1318,428,1324,432,1335,432,1335,440,1340,441,1341,448,1339,455,1343,457,1338,460,1340,474,1339,480,1344,482,1340,489,1348,494,1349,490,1352,497,1357,499,1357,505,1351,506,1353,513,1364,511,1367,520,1367,524,1385,533,1384,540,1385,545,1392,544,1404,547,1403,553,1406,556,1404,563,1387,563,1382,576,1381,586,1375,585,1369,591,1354,593,1350,595" style="fill:greenyellow;stroke:white;stroke-width:5;fill-rule:evenodd;"/>
  <polygon id="UA-09" onclick="myPopup('https://en.wikipedia.org/wiki/Luhansk_Oblast', 'Info', 850, 700);" onmouseover="displayName('Luhansk Oblast')" points="1330,308,1334,302,1333,288,1337,290,1344,288,1348,298,1352,301,1353,299,1360,305,1367,302,1375,304,1373,301,1375,300,1376,303,1375,308,1382,312,1391,314,1395,322,1408,321,1415,312,1417,313,1421,328,1431,332,1438,327,1443,330,1449,331,1453,344,1454,348,1460,348,1465,353,1468,354,1473,354,1483,347,1486,345,1491,347,1495,348,1496,353,1488,357,1487,365,1490,369,1497,378,1498,386,1497,389,1496,392,1492,396,1490,400,1481,406,1479,410,1479,416,1468,414,1464,418,1457,417,1457,426,1463,429,1464,434,1469,437,1477,437,1480,439,1487,435,1490,439,1487,445,1481,449,1478,447,1471,445,1467,445,1465,449,1463,451,1461,451,1459,458,1459,463,1454,470,1456,474,1466,475,1472,479,1472,484,1470,487,1475,494,1477,502,1469,507,1476,513,1482,510,1485,515,1481,518,1477,522,1474,527,1471,532,1470,534,1472,541,1464,543,1468,548,1467,555,1467,559,1467,563,1461,571,1452,567,1443,568,1440,566,1435,569,1430,564,1415,566,1413,569,1404,564,1405,560,1406,556,1403,554,1404,547,1392,544,1385,545,1384,540,1386,533,1367,524,1368,521,1364,511,1354,513,1351,506,1357,505,1357,499,1353,498,1349,490,1348,494,1341,490,1344,482,1339,480,1340,475,1339,469,1338,461,1343,457,1339,456,1342,449,1341,446,1341,441,1336,441,1334,432,1324,431,1318,428,1323,423,1324,421,1321,414,1322,411,1323,402,1316,406,1309,403,1307,402,1308,399,1312,398,1306,394,1305,393,1311,388,1307,382,1306,374,1304,368,1310,367,1312,361,1315,355,1313,351,1317,341,1316,332,1312,334,1314,328,1318,329,1320,323,1317,320,1324,316,1318,310,1326,306,1328,307" style="fill:greenyellow;stroke:white;stroke-width:5;fill-rule:evenodd;"/>

  <g class="label">
      <rect style="stroke-width:1;stroke:rgb(0,0,0)" x="100" y="675" width="28" height="28" class="west" />
      <rect style="stroke-width:1;stroke:rgb(0,0,0)" x="100" y="715" width="28" height="28" class="central" />
      <rect style="stroke-width:1;stroke:rgb(0,0,0)" x="100" y="755" width="28" height="28" class="east" />
    
      <text x="140" y="699">West regions</text>
      <text x="140" y="739">Central regions</text>
      <text x="140" y="779">East regions</text>
  </g>

   <text x="100" y="970" style="color: black; font-size: 250%; font-style: italic;">Region:</text>
   <text class="label" id="region_name" x="245" y="970" style="color: black; font-size: 250%; ">(select the area) </text>

<script type="text/javascript">
	function myFunction(name) {
    alert(name);
  }
  
	function displayName(name) {
    	document.getElementById('region_name').firstChild.data = name;
	}
  
  function myPopup(myURL, title, myWidth, myHeight) {
    var left = (screen.width - myWidth) / 2;
    var top = (screen.height - myHeight) / 4;
    var myWindow = window.open(myURL, title, 'toolbar=no, location=no, directories=no, status=no, menubar=no, scrollbars=no, resizable=no, copyhistory=no, width=' + myWidth + ', height=' + myHeight + ', top=' + top + ', left=' + left);
  }

</script>

</svg>